<svg xmlns="http://www.w3.org/2000/svg" viewBox="0 0 100 100" width="100" height="100"><title>Bạn mũ lưỡi trai</title><circle cx="50" cy="50" r="50" fill="#FFF3DF"/><circle cx="50" cy="52" r="44" fill="#fff4e2"/><path d="M50 74c-18 0-30 10-34 24h68c-4-14-16-24-34-24Z" fill="#FF8C42"/><path d="M50 74c18 0 30 10 34 24H50Z" fill="#e07b3a"/><circle cx="50" cy="48" r="28" fill="#E0A877"/><path d="M50 20a28 28 0 0 1 0 56Z" fill="#c59469" fill-opacity="0.35"/><path d="M50 12a30 26 0 0 1 30 26H20a30 26 0 0 1 30-26Z" fill="#2F80ED"/><path d="M78 36h18a8 8 0 0 1 0 12H78Z" fill="#2971d1"/><circle cx="50" cy="12" r="6" fill="#448def"/><circle cx="40" cy="48" r="6" fill="#FFFFFF"/><circle cx="40" cy="48" r="2.7600000000000002" fill="#2B2B3A"/><circle cx="38.896" cy="46.62" r="1.104" fill="#FFFFFF"/><circle cx="60" cy="48" r="6" fill="#FFFFFF"/><circle cx="60" cy="48" r="2.7600000000000002" fill="#2B2B3A"/><circle cx="58.896" cy="46.62" r="1.104" fill="#FFFFFF"/><path d="M42 60a10 7 0 0 0 16 0Z" fill="#C4665A"/><circle cx="30" cy="56" r="6" fill="#F49AC1" fill-opacity="0.5"/><circle cx="70" cy="56" r="6" fill="#F49AC1" fill-opacity="0.5"/></svg>
