<svg xmlns="http://www.w3.org/2000/svg" viewBox="0 0 100 100" width="100" height="100"><title>bông tuyết · snowflake</title><ellipse cx="50" cy="90" rx="22" ry="5.279999999999999" fill="#8A6B3C" fill-opacity="0.22"/><line x1="18" y1="50" x2="82" y2="50" stroke="#DCEEFF" stroke-width="6" stroke-linecap="round"/><circle cx="18" cy="50" r="4" fill="#DCEEFF"/><circle cx="82" cy="50" r="4" fill="#DCEEFF"/><line x1="32.4" y1="50" x2="26" y2="44.24" stroke="#DCEEFF" stroke-width="3" stroke-linecap="round"/><line x1="67.6" y1="50" x2="74" y2="55.76" stroke="#DCEEFF" stroke-width="3" stroke-linecap="round"/><line x1="34" y1="22.287187078897965" x2="66" y2="77.71281292110203" stroke="#EAF5FF" stroke-width="6" stroke-linecap="round"/><circle cx="34" cy="22.287187078897965" r="4" fill="#EAF5FF"/><circle cx="66" cy="77.71281292110203" r="4" fill="#EAF5FF"/><line x1="41.199999999999996" y1="34.75795289339388" x2="42.98830632579836" y2="26.335390309173473" stroke="#EAF5FF" stroke-width="3" stroke-linecap="round"/><line x1="58.800000000000004" y1="65.24204710660612" x2="57.01169367420164" y2="73.66460969082652" stroke="#EAF5FF" stroke-width="3" stroke-linecap="round"/><line x1="66" y1="22.28718707889796" x2="34.00000000000001" y2="77.71281292110204" stroke="#DCEEFF" stroke-width="6" stroke-linecap="round"/><circle cx="66" cy="22.28718707889796" r="4" fill="#DCEEFF"/><circle cx="34.00000000000001" cy="77.71281292110204" r="4" fill="#DCEEFF"/><line x1="58.8" y1="34.75795289339388" x2="66.98830632579836" y2="32.09539030917347" stroke="#DCEEFF" stroke-width="3" stroke-linecap="round"/><line x1="41.2" y1="65.24204710660612" x2="33.01169367420164" y2="67.90460969082653" stroke="#DCEEFF" stroke-width="3" stroke-linecap="round"/><circle cx="50" cy="50" r="7" fill="#FFFFFF"/><circle cx="50" cy="50" r="4" fill="#B9DCFF" fill-opacity="0.6"/></svg>
