<svg xmlns="http://www.w3.org/2000/svg" viewBox="0 0 100 100" width="100" height="100"><title>con nhện · spider</title><ellipse cx="50" cy="86" rx="26" ry="6.24" fill="#8A6B3C" fill-opacity="0.22"/><circle cx="50" cy="56" r="22" fill="#5A4A6B"/><path d="M50 34a22 22 0 0 1 22 22H50Z" fill="#4f415e"/><line x1="40" y1="36" x2="30" y2="20" stroke="#4f415e" stroke-width="3" stroke-linecap="round"/><line x1="32" y1="46" x2="14" y2="34" stroke="#4f415e" stroke-width="4" stroke-linecap="round"/><line x1="30" y1="56" x2="10" y2="54" stroke="#4f415e" stroke-width="4" stroke-linecap="round"/><line x1="32" y1="66" x2="14" y2="78" stroke="#4f415e" stroke-width="4" stroke-linecap="round"/><line x1="60" y1="36" x2="70" y2="20" stroke="#4f415e" stroke-width="3" stroke-linecap="round"/><line x1="68" y1="46" x2="86" y2="34" stroke="#4f415e" stroke-width="4" stroke-linecap="round"/><line x1="70" y1="56" x2="90" y2="54" stroke="#4f415e" stroke-width="4" stroke-linecap="round"/><line x1="68" y1="66" x2="86" y2="78" stroke="#4f415e" stroke-width="4" stroke-linecap="round"/><circle cx="42" cy="50" r="4" fill="#FFFFFF"/><circle cx="42" cy="50" r="1.84" fill="#2B2B3A"/><circle cx="41.264" cy="49.08" r="0.7360000000000001" fill="#FFFFFF"/><circle cx="58" cy="50" r="4" fill="#FFFFFF"/><circle cx="58" cy="50" r="1.84" fill="#2B2B3A"/><circle cx="57.264" cy="49.08" r="0.7360000000000001" fill="#FFFFFF"/></svg>
