<svg xmlns="http://www.w3.org/2000/svg" viewBox="0 0 100 100" width="100" height="100"><title>con bò · cow</title><ellipse cx="50" cy="88" rx="32" ry="7.68" fill="#8A6B3C" fill-opacity="0.22"/><rect x="26" y="44" width="48" height="30" rx="15" fill="#E9E9F0"/><path d="M50 44h24a15 15 0 0 1 15 15v15H50Z" fill="#cdcdd3"/><rect x="30" y="70" width="9" height="16" rx="4" fill="#cdcdd3"/><rect x="44" y="70" width="9" height="16" rx="4" fill="#E9E9F0"/><rect x="58" y="70" width="9" height="16" rx="4" fill="#cdcdd3"/><path d="M74 50c10-4 14-12 12-20-8 2-12 8-12 20Z" fill="#cdcdd3"/><circle cx="30" cy="38" r="17" fill="#E9E9F0"/><circle cx="20" cy="26" r="8" fill="#cdcdd3"/><circle cx="40" cy="26" r="8" fill="#cdcdd3"/><ellipse cx="26" cy="44" rx="11" ry="8" fill="#ebebf2"/><circle cx="22" cy="42" r="3" fill="#2B2B3A"/><circle cx="26" cy="34" r="4.5" fill="#FFFFFF"/><circle cx="26" cy="34" r="2.0700000000000003" fill="#2B2B3A"/><circle cx="25.172" cy="32.965" r="0.8280000000000002" fill="#FFFFFF"/><circle cx="38" cy="34" r="4.5" fill="#FFFFFF"/><circle cx="38" cy="34" r="2.0700000000000003" fill="#2B2B3A"/><circle cx="37.172" cy="32.965" r="0.8280000000000002" fill="#FFFFFF"/><circle cx="56" cy="52" r="9" fill="#4A4A57"/><circle cx="66" cy="64" r="6" fill="#4A4A57"/><path d="M18 24c-6-6-6-12-2-16 4 4 6 10 2 16Z" fill="#CBB79A"/><path d="M42 24c6-6 6-12 2-16-4 4-6 10-2 16Z" fill="#B9A487"/></svg>
