<svg xmlns="http://www.w3.org/2000/svg" viewBox="0 0 100 100" width="100" height="100"><title>đùi gà · chicken drumstick</title><ellipse cx="50" cy="90" rx="26" ry="6.24" fill="#8A6B3C" fill-opacity="0.22"/><path d="M42 30c14-6 26 4 26 20 0 18-14 34-30 40-6-10-10-20-6-32 2-8 4-16 10-28Z" fill="#C98A4E"/><path d="M42 30c14-6 26 4 26 20 0 18-14 34-30 40Z" fill="#b17945"/><ellipse cx="50" cy="42" rx="10" ry="7" fill="#ce9660" fill-opacity="0.8"/><rect x="28" y="74" width="8" height="16" rx="4" fill="#FFF4DE"/><circle cx="26" cy="90" r="6" fill="#FFF4DE"/><circle cx="36" cy="90" r="6" fill="#FFF4DE"/></svg>
