<svg xmlns="http://www.w3.org/2000/svg" viewBox="0 0 100 100" width="100" height="100"><title>quả xoài · mango</title><ellipse cx="50" cy="90" rx="26" ry="6.24" fill="#8A6B3C" fill-opacity="0.22"/><path d="M46 22c18-4 30 8 28 26-2 20-14 38-30 42-14-4-22-18-22-34 0-16 8-30 24-34Z" fill="#FF9F45"/><path d="M46 22c18-4 30 8 28 26-2 20-14 38-30 42Z" fill="#e08c3d"/><ellipse cx="38" cy="42" rx="9" ry="13" fill="#ffa958" fill-opacity="0.8"/><path d="M64 30c8 6 12 16 10 28-6-4-10-16-10-28Z" fill="#F2704A"/><rect x="43" y="18" width="6" height="8" rx="3" fill="#8A6B3C"/></svg>
