<svg xmlns="http://www.w3.org/2000/svg" viewBox="0 0 100 100" width="100" height="100"><title>tàu thuỷ · ship</title><ellipse cx="50" cy="92" rx="38" ry="9.12" fill="#8A6B3C" fill-opacity="0.22"/><path d="M8 66c0-4 3-6 7-6h70c4 0 7 2 7 6l-8 14a10 10 0 0 1-9 7H25a10 10 0 0 1-9-7Z" fill="#2F80ED"/><path d="M50 60h35c4 0 7 2 7 6l-8 14a10 10 0 0 1-9 7H50Z" fill="#2971d1"/><rect x="20" y="50" width="60" height="12" rx="6" fill="#DCEEFF"/><rect x="38" y="26" width="10" height="26" rx="4" fill="#FF8C42"/><ellipse cx="43" cy="26" rx="5" ry="3" fill="#e07b3a"/><rect x="56" y="32" width="8" height="20" rx="4" fill="#e07b3a"/><circle cx="30" cy="70" r="4" fill="#DCEEFF"/><circle cx="50" cy="70" r="4" fill="#DCEEFF"/></svg>
