<svg xmlns="http://www.w3.org/2000/svg" viewBox="0 0 1200 800" width="1200" height="800"><title>vuon-hoa</title><defs><linearGradient id="s1" x1="0" y1="0" x2="0" y2="1"><stop offset="0" stop-color="#FFE9F3"/><stop offset="1" stop-color="#FFD3E6"/></linearGradient></defs><rect x="0" y="0" width="1200" height="800" rx="0" fill="url(#s1)"/><circle cx="1030" cy="150" r="72" fill="#FFD447"/><path d="M958 150a72 72 0 0 0 72 72 72 72 0 0 0 72 -72A72 72 0 0 1 958 150Z" fill="#e0bb3e"/><circle cx="1004.8" cy="124.8" r="21.599999999999998" fill="#ffd859" fill-opacity="0.85"/><g transform="translate(230 150) scale(1)" opacity="0.9"><ellipse cx="0" cy="8" rx="74" ry="32" fill="#e0e0e0"/><circle cx="-30" cy="-4" r="30" fill="#FFFFFF"/><circle cx="8" cy="-16" r="38" fill="#FFFFFF"/></g><g transform="translate(880 96) scale(0.8)" opacity="0.9"><ellipse cx="0" cy="8" rx="74" ry="32" fill="#e0e0e0"/><circle cx="-30" cy="-4" r="30" fill="#FFFFFF"/><circle cx="8" cy="-16" r="38" fill="#FFFFFF"/></g><path d="M0 470c180-70 300 26 470-10 190-40 300 44 730-30V800H0Z" fill="#F6C9DF"/><rect x="0" y="600" width="1200" height="200" rx="0" fill="#5FA968"/><path d="M0 600h1200v34a1800 1800 0 0 1-1200 0Z" fill="#7BC67E"/><g transform="translate(180 640) scale(0.9)"><rect x="-14" y="-70" width="28" height="140" rx="12" fill="#B98A5A"/><circle cx="-46" cy="-110" r="56" fill="#7BC67E"/><path d="M-102 -110a56 56 0 0 0 56 56 56 56 0 0 0 56 -56A56 56 0 0 1 -102 -110Z" fill="#6cae6f"/><circle cx="-65.6" cy="-129.6" r="16.8" fill="#88cc8b" fill-opacity="0.85"/><circle cx="40" cy="-120" r="60" fill="#7BC67E"/><path d="M-20 -120a60 60 0 0 0 60 60 60 60 0 0 0 60 -60A60 60 0 0 1 -20 -120Z" fill="#6cae6f"/><circle cx="19" cy="-141" r="18" fill="#88cc8b" fill-opacity="0.85"/><circle cx="-2" cy="-160" r="66" fill="#7BC67E"/><path d="M-68 -160a66 66 0 0 0 66 66 66 66 0 0 0 66 -66A66 66 0 0 1 -68 -160Z" fill="#6cae6f"/><circle cx="-25.099999999999998" cy="-183.1" r="19.8" fill="#88cc8b" fill-opacity="0.85"/></g><g transform="translate(430 660) scale(1)"><path d="M0 46v-40" fill="none" stroke="#5FA968" stroke-width="8"/><g transform="translate(-16 20) rotate(-30)"><path d="M0 0C13.52 -8.32 13.52 -18.72 0 -26C-13.52 -18.72 -13.52 -8.32 0 0Z" fill="#7BC67E"/><path d="M0 0C13.52 -8.32 13.52 -18.72 0 -26Z" fill="#6cae6f"/></g><ellipse cx="0" cy="-26" rx="16" ry="24" fill="#F49AC1" transform="rotate(0 0 0)"/><ellipse cx="0" cy="-26" rx="16" ry="24" fill="#F49AC1" transform="rotate(72 0 0)"/><ellipse cx="0" cy="-26" rx="16" ry="24" fill="#F49AC1" transform="rotate(144 0 0)"/><ellipse cx="0" cy="-26" rx="16" ry="24" fill="#F49AC1" transform="rotate(216 0 0)"/><ellipse cx="0" cy="-26" rx="16" ry="24" fill="#F49AC1" transform="rotate(288 0 0)"/><circle cx="0" cy="0" r="15" fill="#FFD447"/></g><g transform="translate(560 690) scale(1.15)"><path d="M0 46v-40" fill="none" stroke="#5FA968" stroke-width="8"/><g transform="translate(-16 20) rotate(-30)"><path d="M0 0C13.52 -8.32 13.52 -18.72 0 -26C-13.52 -18.72 -13.52 -8.32 0 0Z" fill="#7BC67E"/><path d="M0 0C13.52 -8.32 13.52 -18.72 0 -26Z" fill="#6cae6f"/></g><ellipse cx="0" cy="-26" rx="16" ry="24" fill="#FFB0D6" transform="rotate(0 0 0)"/><ellipse cx="0" cy="-26" rx="16" ry="24" fill="#FFB0D6" transform="rotate(72 0 0)"/><ellipse cx="0" cy="-26" rx="16" ry="24" fill="#FFB0D6" transform="rotate(144 0 0)"/><ellipse cx="0" cy="-26" rx="16" ry="24" fill="#FFB0D6" transform="rotate(216 0 0)"/><ellipse cx="0" cy="-26" rx="16" ry="24" fill="#FFB0D6" transform="rotate(288 0 0)"/><circle cx="0" cy="0" r="15" fill="#FFD447"/></g><g transform="translate(700 650) scale(0.9)"><path d="M0 46v-40" fill="none" stroke="#5FA968" stroke-width="8"/><g transform="translate(-16 20) rotate(-30)"><path d="M0 0C13.52 -8.32 13.52 -18.72 0 -26C-13.52 -18.72 -13.52 -8.32 0 0Z" fill="#7BC67E"/><path d="M0 0C13.52 -8.32 13.52 -18.72 0 -26Z" fill="#6cae6f"/></g><ellipse cx="0" cy="-26" rx="16" ry="24" fill="#C77DFF" transform="rotate(0 0 0)"/><ellipse cx="0" cy="-26" rx="16" ry="24" fill="#C77DFF" transform="rotate(72 0 0)"/><ellipse cx="0" cy="-26" rx="16" ry="24" fill="#C77DFF" transform="rotate(144 0 0)"/><ellipse cx="0" cy="-26" rx="16" ry="24" fill="#C77DFF" transform="rotate(216 0 0)"/><ellipse cx="0" cy="-26" rx="16" ry="24" fill="#C77DFF" transform="rotate(288 0 0)"/><circle cx="0" cy="0" r="15" fill="#FFD447"/></g><g transform="translate(860 700) scale(1)"><path d="M0 46v-40" fill="none" stroke="#5FA968" stroke-width="8"/><g transform="translate(-16 20) rotate(-30)"><path d="M0 0C13.52 -8.32 13.52 -18.72 0 -26C-13.52 -18.72 -13.52 -8.32 0 0Z" fill="#7BC67E"/><path d="M0 0C13.52 -8.32 13.52 -18.72 0 -26Z" fill="#6cae6f"/></g><ellipse cx="0" cy="-26" rx="16" ry="24" fill="#FFD447" transform="rotate(0 0 0)"/><ellipse cx="0" cy="-26" rx="16" ry="24" fill="#FFD447" transform="rotate(72 0 0)"/><ellipse cx="0" cy="-26" rx="16" ry="24" fill="#FFD447" transform="rotate(144 0 0)"/><ellipse cx="0" cy="-26" rx="16" ry="24" fill="#FFD447" transform="rotate(216 0 0)"/><ellipse cx="0" cy="-26" rx="16" ry="24" fill="#FFD447" transform="rotate(288 0 0)"/><circle cx="0" cy="0" r="15" fill="#FFD447"/></g><path d="M980 504C984.48 515.52 984.48 515.52 996 520C984.48 524.48 984.48 524.48 980 536C975.52 524.48 975.52 524.48 964 520C975.52 515.52 975.52 515.52 980 504Z" fill="#FFFFFF" fill-opacity="0.95"/><path d="M320 418C323.36 426.64 323.36 426.64 332 430C323.36 433.36 323.36 433.36 320 442C316.64 433.36 316.64 433.36 308 430C316.64 426.64 316.64 426.64 320 418Z" fill="#FFFFFF" fill-opacity="0.95"/></svg>
