<svg xmlns="http://www.w3.org/2000/svg" viewBox="0 0 1600 1000" width="1600" height="1000"><title>Vườn Kỳ Diệu — Bến Tàu Tiếng Anh — công trình</title><g id="layer-mid"><rect x="0" y="640" width="1600" height="150" rx="0" fill="#8AD4F0"/><path d="M0 640h1600v26a1600 1600 0 0 1-1600 0Z" fill="#A8E2F6"/><g id="boat" transform="translate(250 640)"><path d="M-150 0h300c-14 66-70 104-150 104S-136 66-150 0Z" fill="#7BC67E"/><path d="M0 0h150c-14 66-70 104-150 104Z" fill="#5FA968"/><path d="M-150 0h300l10-18h-320Z" fill="#88cc8b"/><rect x="-8" y="-190" width="15" height="190" rx="7" fill="#B98A5A"/><path d="M8-182C116-140 116-56 8-14Z" fill="#F49AC1"/><path d="M8-120C72-104 92-56 8-14Z" fill="#d788aa"/><text x="46" y="-88" text-anchor="middle" font-family="Nunito, sans-serif" font-size="56" font-weight="800" fill="#FFFFFF">A</text></g><ellipse cx="1180" cy="700" rx="92" ry="30" fill="#7BC67E"/><path d="M1180 700a92 30 0 0 1 92-30Z" fill="#5FA968"/><ellipse cx="1330" cy="736" rx="76" ry="26" fill="#7BC67E"/><ellipse cx="1240" cy="766" rx="64" ry="22" fill="#5FA968"/><ellipse cx="1470" cy="692" rx="170" ry="50" fill="#7BC67E"/><path d="M1470 692a170 50 0 0 1 170-50Z" fill="#5FA968"/><g id="lighthouse" transform="translate(1470 668)"><rect x="-30" y="-230" width="60" height="236" rx="24" fill="#FFFFFF"/><rect x="-30" y="-196" width="60" height="34" rx="0" fill="#F49AC1"/><rect x="-30" y="-118" width="60" height="34" rx="0" fill="#F49AC1"/><rect x="6" y="-230" width="24" height="236" rx="12" fill="#F0E8F6" fill-opacity="0.55"/><circle cx="0" cy="-248" r="38" fill="#FFD447"/><circle cx="-12" cy="-260" r="14" fill="#FFFFFF" fill-opacity="0.9"/></g></g></svg>
